<svg width="30" height="30" viewBox="0 0 30 30" fill="none" xmlns="http://www.w3.org/2000/svg">
<g id="ci:external-link">
<path id="Vector" d="M21.2515 25H7.50146C6.83842 25 6.20254 24.7366 5.7337 24.2678C5.26486 23.7989 5.00146 23.163 5.00146 22.5V8.75C5.00146 8.08696 5.26486 7.45107 5.7337 6.98223C6.20254 6.51339 6.83842 6.25 7.50146 6.25H12.5015V8.75H7.50146V22.5H21.2515V17.5H23.7515V22.5C23.7515 23.163 23.4881 23.7989 23.0192 24.2678C22.5504 24.7366 21.9145 25 21.2515 25ZM14.6265 17.1337L12.864 15.3663L20.7302 7.5H16.2515V5H25.0015V13.75H22.5015V9.26875L14.6265 17.1337Z" fill="white"/>
</g>
</svg>
