<svg width="36" height="36" viewBox="0 0 36 36" fill="none" xmlns="http://www.w3.org/2000/svg">
<g id="soc-icons">
<path id="Vector" d="M29.9624 12.0325C30.1665 12.5687 29.5397 13.8196 28.0821 15.7854C27.8781 16.0535 27.6157 16.4109 27.2951 16.8576C26.6246 17.6916 26.2456 18.2426 26.1582 18.5107C26.0124 18.8681 26.0707 19.2106 26.3331 19.5382C26.4788 19.717 26.8141 20.0744 27.3388 20.6105H27.3825V20.6552C28.5777 21.7572 29.3794 22.6954 29.7875 23.4698L29.875 23.6485L29.9624 23.9836V24.408L29.6563 24.7431L28.913 24.8995L25.7209 24.9888C25.5168 25.0186 25.2763 24.9888 24.9994 24.8995C24.7225 24.8101 24.5111 24.7208 24.3654 24.6314L24.103 24.4527C23.8406 24.274 23.5491 24.0059 23.2284 23.6485C22.9078 23.2911 22.6236 22.9635 22.3758 22.6656C22.128 22.3678 21.8729 22.1221 21.6105 21.9285C21.3482 21.7349 21.115 21.6678 20.9109 21.7274C20.8818 21.7274 20.8453 21.7423 20.8016 21.7721C20.7579 21.8019 20.685 21.8689 20.583 21.9731C20.4809 22.0774 20.3935 22.204 20.3206 22.3529C20.2477 22.5018 20.1821 22.7178 20.1238 23.0007C20.0655 23.2837 20.0364 23.6187 20.0364 24.0059C20.0364 24.1251 20.0218 24.2368 19.9926 24.341C19.9635 24.4453 19.9343 24.5272 19.9052 24.5867L19.8615 24.6314C19.6866 24.8101 19.4533 24.8995 19.1618 24.8995H17.7626C17.1504 24.959 16.5309 24.8995 15.9042 24.7208C15.2774 24.5421 14.7308 24.3112 14.2644 24.0283C13.798 23.7453 13.3753 23.4624 12.9963 23.1794C12.6174 22.8965 12.3258 22.6507 12.1218 22.4422L11.8157 22.1295C11.7282 22.0699 11.6116 21.9508 11.4659 21.7721C11.3201 21.5934 11.0213 21.2062 10.5695 20.6105C10.1176 20.0148 9.67307 19.3744 9.2358 18.6894C8.79853 18.0043 8.28838 17.1034 7.70535 15.9864C7.12233 14.8695 6.58303 13.7154 6.08745 12.524C6.02915 12.3751 6 12.2559 6 12.1666C6 12.0772 6.01458 12.0027 6.04373 11.9432L6.08745 11.8985C6.20406 11.7198 6.43727 11.6304 6.78709 11.6304H10.2415C10.329 11.6304 10.4164 11.6528 10.5039 11.6975L10.7225 11.8091L10.7662 11.8538C10.912 11.9432 11.014 12.0772 11.0723 12.2559C11.2472 12.6729 11.444 13.1122 11.6626 13.5739C11.8813 14.0355 12.0489 14.3855 12.1655 14.6238L12.3404 14.9812C12.6028 15.4875 12.8433 15.9269 13.0619 16.2992C13.2806 16.6715 13.4773 16.9619 13.6522 17.1704C13.8271 17.3789 14.002 17.5427 14.177 17.6618C14.3519 17.781 14.4976 17.8405 14.6142 17.8405C14.7308 17.8405 14.8474 17.8256 14.964 17.7959L15.0078 17.7288L15.1608 17.4384L15.3357 16.8576L15.445 15.8301V14.2217C15.4159 13.8941 15.3722 13.5888 15.3139 13.3058C15.2556 13.0229 15.1973 12.8218 15.1389 12.7027L15.0952 12.5687C14.8912 12.2708 14.5268 12.0772 14.002 11.9879C13.9146 11.9879 13.9437 11.8836 14.0895 11.6751C14.2353 11.5262 14.3956 11.4071 14.5705 11.3177C15.0078 11.0794 15.9989 10.9752 17.5439 11.005C18.2144 11.005 18.7829 11.0645 19.2493 11.1837C19.395 11.2135 19.5262 11.2656 19.6428 11.34C19.7594 11.4145 19.8469 11.5187 19.9052 11.6528C19.9635 11.7868 20.0072 11.9208 20.0364 12.0549C20.0655 12.1889 20.0801 12.3825 20.0801 12.6357V13.3282C20.051 13.5664 20.0364 13.8643 20.0364 14.2217V15.2939C20.0364 15.3833 20.0291 15.562 20.0145 15.8301C19.9999 16.0981 19.9926 16.3066 19.9926 16.4555C19.9926 16.6045 20.0072 16.7757 20.0364 16.9693C20.0655 17.1629 20.1165 17.3267 20.1894 17.4608C20.2623 17.5948 20.357 17.6916 20.4736 17.7512C20.5319 17.781 20.5975 17.8033 20.6704 17.8182C20.7433 17.8331 20.8526 17.7884 20.9984 17.6842C21.1441 17.5799 21.3045 17.431 21.4794 17.2374C21.6543 17.0438 21.8729 16.7534 22.1353 16.3662C22.3976 15.979 22.6746 15.5322 22.9661 15.0259C23.4617 14.1323 23.9135 13.1643 24.3216 12.1219C24.3508 12.0623 24.3872 11.9953 24.4309 11.9208C24.4747 11.8464 24.5257 11.7943 24.584 11.7645H24.6277L24.6714 11.7198L24.8463 11.6751H25.1087L28.6943 11.6304C29.015 11.6007 29.2846 11.6155 29.5033 11.6751C29.7219 11.7347 29.8458 11.8091 29.875 11.8985L29.9624 12.0325Z" fill="white"/>
</g>
</svg>
