<svg width="36" height="36" viewBox="0 0 36 36" fill="none" xmlns="http://www.w3.org/2000/svg">
<g id="soc-icons">
<g id="Group">
<g id="Group_2">
<path id="Vector" d="M31.797 11.4099C31.634 10.8283 31.3164 10.3017 30.878 9.8862C30.4273 9.4579 29.8748 9.15153 29.2728 8.996C27.0197 8.40213 17.9929 8.40213 17.9929 8.40213C14.2297 8.35931 10.4675 8.54763 6.72739 8.966C6.12535 9.13302 5.57392 9.44624 5.12214 9.8778C4.67824 10.3049 4.35671 10.8316 4.18875 11.4087C3.78527 13.5823 3.58923 15.7893 3.60328 18C3.58888 20.2087 3.78444 22.415 4.18875 24.5913C4.35311 25.166 4.67344 25.6903 5.11854 26.1138C5.56365 26.5373 6.11792 26.8433 6.72739 27.0052C9.01048 27.5979 17.9929 27.5979 17.9929 27.5979C21.7609 27.6408 25.5279 27.4524 29.2728 27.034C29.8748 26.8785 30.4273 26.5721 30.878 26.1438C31.3219 25.7203 31.6375 25.1936 31.7958 24.6201C32.2099 22.4474 32.4112 20.2394 32.3969 18.0276C32.428 15.8064 32.227 13.5881 31.797 11.4087V11.4099ZM15.1231 22.1079V13.8933L22.6335 18.0012L15.1231 22.1079Z" fill="white"/>
</g>
</g>
</g>
</svg>
